<?xml version="1.0" encoding="utf-8"?>
<!-- Generator: Adobe Illustrator 24.2.3, SVG Export Plug-In . SVG Version: 6.00 Build 0)  -->
<svg version="1.1" id="Layer_1" xmlns="http://www.w3.org/2000/svg" xmlns:xlink="http://www.w3.org/1999/xlink" x="0px" y="0px"
	 viewBox="0 0 26 20" style="enable-background:new 0 0 26 20;" xml:space="preserve">
<style type="text/css">
	.st0{fill:#FFFFFF;}
</style>
<path class="st0" d="M12.8,0H8v0.5c1.3,0,1.4,0.9,1,1.8C7.3,6.2,3.2,15.9,2.7,16.9c-0.6,1.2-1.5,2.6-2.7,2.6V20h4.6v-0.5
	c-1,0-1.4-1.4-0.8-2.6l1.4-3.2H10v3.6c0,2.2-0.8,2.3-2,2.3V20h6.9v-0.5c-1,0-2-0.1-2-2.3C12.9,16.1,12.8,0,12.8,0z M10,12.9H5.6
	L10,2.8L10,12.9L10,12.9z"/>
<path class="st0" d="M22.7,0h-8.4v0.5c1.2,0,2,0.7,2,2.2V17c0,2.3-0.9,2.5-2,2.5V20h6.9v-0.5c-1.2,0-2-0.3-2-2.5v-5.9h3.7
	c1.2,0,2.1-0.8,2.1-2.6V2.5C25,1,24.2,0,22.7,0z M22.2,9.6c0,0.5-0.2,0.8-0.6,0.8h-2.3l0-4.4V5l0-4.3h2.3c0.4,0,0.6,0.3,0.6,0.9
	C22.2,1.7,22.2,9.6,22.2,9.6z"/>
<path class="st0" d="M11.9,0.2c1.5,0-0.2-0.2-0.2-0.2h3.2v0.5c-1.2,0-2,0.7-2,2.2V17c0,2.3,0.9,2.5,2,2.5V20l-3.2-0.5
	c1.2,0-0.8-0.3-0.8-2.5l-0.3-6l-0.4-0.6c0-1.1,0.7-0.1,0.4-2v-6C10.6,0.9,10.4,0.2,11.9,0.2z"/>
</svg>
