<?xml version="1.0" encoding="utf-8"?>
<!-- Generator: Adobe Illustrator 24.2.3, SVG Export Plug-In . SVG Version: 6.00 Build 0)  -->
<svg version="1.1" id="logo" xmlns="http://www.w3.org/2000/svg" xmlns:xlink="http://www.w3.org/1999/xlink" x="0px" y="0px"
	 viewBox="0 0 330.7 70" style="enable-background:new 0 0 330.7 70;" xml:space="preserve">
<style type="text/css">
	.st0{fill:#FFFFFF;}
</style>
<path class="st0" d="M124.7,66.1c-0.8,2.5-0.9,3,1.8,3c2.6,0,3.6-0.1,5-2.4c0.2-0.1,0.5,0,0.5,0.1c-0.2,0.8-1,2.4-1.4,3
	c-0.9,0-1.8,0-2.6,0c-0.9,0-1.8,0-2.6,0h-2.6c-0.9,0-1.7,0-2.4,0.1c-0.2-0.1-0.2-0.4,0-0.6l0.5-0.1c1.1-0.2,1.3-0.4,2-2.7l2.6-8.4
	c0.7-2.1,0.7-2.5-0.5-2.7l-0.5-0.1c-0.1-0.2-0.1-0.5,0.1-0.6c0.9,0,1.7,0.1,2.6,0.1c1,0,1.7,0,2.8-0.1c0.2,0.1,0.2,0.5,0,0.6
	l-0.7,0.1c-1.3,0.2-1.4,0.4-2.1,2.7C127.2,58.1,124.7,66.1,124.7,66.1z M141.2,61.9c0,1.7-2.2,2.8-5.5,3.8c-0.2,0.4-0.3,1.1-0.3,2
	c0,0.8,0.5,1.3,1.1,1.3c0.8,0,1.4-0.5,2.4-1.3c0.2,0,0.3,0.2,0.3,0.4c-1.4,1.7-2.7,2.1-3.6,2.1c-1.4,0-1.8-1.3-1.8-2.4
	c0-1.4,0.9-4.2,3.4-6.1c1.2-0.9,2.1-1.1,2.7-1.1C140.7,60.5,141.2,61.3,141.2,61.9 M137.6,62.3c-0.9,1-1.4,2-1.7,2.6
	c1.5-0.5,2.2-0.9,3-1.7c0.7-0.7,0.9-1.3,0.9-1.5c0-0.2-0.1-0.5-0.5-0.5C139,61.2,138.4,61.4,137.6,62.3 M153.6,57.6
	c0.5-1.7,0.3-1.9-0.7-2l-0.7,0c-0.2-0.1-0.1-0.4,0-0.5c1.3-0.2,2.5-0.3,3.8-0.3c1.2,0,2.6,0.1,3.7,0.5c1.1,0.5,1.9,1.3,1.9,2.8
	c0,2.3-2.3,3.3-3.5,3.4c-0.4,0-0.2,0.2,0,0.2c1.4,0.5,2.4,1.8,2.4,3.3c0,0.8-0.2,2-1.2,2.9c-0.9,0.9-2.6,1.7-5.4,1.7
	c-1.2,0-2.1-0.1-3-0.1c-0.8,0-1.6,0-2.3,0.1c-0.2-0.1-0.2-0.4,0-0.6l0.5-0.1c1.1-0.2,1.3-0.4,2-2.7L153.6,57.6L153.6,57.6z
	 M152.4,67.1c-0.5,1.5,0.2,2,1.8,2c1.9,0,4.3-1.2,4.3-4.2c0-1.9-1.7-2.8-3.3-2.8c-1.1,0-1.2,0-1.4,0.8L152.4,67.1L152.4,67.1z
	 M154.4,60.7c-0.2,0.5-0.1,0.7,0.8,0.7c1.6,0,4.5-0.8,4.5-3.6c0-1.3-1-2.3-2.8-2.3c-0.9,0-0.9,0-1.1,0.7
	C155.8,56.2,154.4,60.7,154.4,60.7z M166.2,62.6l-1,2.9h0.1c0.7-1.3,1.8-3.1,2.4-3.8c0.5-0.7,1.1-1.2,1.6-1.2c0.8,0,0.9,0.8,0.9,1.1
	c0,0.3-0.2,1-0.5,1.4c-0.3,0.3-0.6,0.4-0.7-0.1c-0.1-0.6-0.2-0.9-0.5-0.9c-0.2,0-0.5,0.2-0.8,0.7c-1.4,1.8-2.6,4.5-3.8,7.1
	c-0.1,0.2-0.2,0.3-0.4,0.3c-0.2,0-0.9-0.1-0.7-0.6c0.3-0.9,1.7-4.9,2.3-7.1c0.1-0.2,0-0.5-0.2-0.5c-0.6,0-1.2,0.6-1.6,1.2
	c-0.2,0-0.4-0.1-0.4-0.4c0.7-1.2,1.6-2.2,2.7-2.2C166.8,60.5,166.4,62,166.2,62.6 M178,60c0.4-0.2,1,0,1.1,0.3
	c-0.3,0.8-2.3,5.8-3,7.9c-0.1,0.4,0,0.5,0.2,0.5c0.4,0,1-0.4,2.3-1.5c0.2,0,0.3,0.1,0.3,0.3c-0.9,1.3-2.6,2.5-3.8,2.5
	c-0.3,0-0.6-0.2-0.7-0.6c0,0,0,0,0,0c0-0.2,0-0.4,0.2-0.9l0.7-2l-0.1,0c-1.6,2-3.9,3.6-5,3.6c-0.6,0-1-0.6-1-1.3
	c0-0.5,0.5-2.3,2-4.4c1.1-1.5,2.1-2.4,3-2.9c0.9-0.5,1.4-0.7,2-0.7c0.2,0,0.4,0.1,0.5,0.1c0.1,0,0.3,0.2,0.5,0.5L178,60L178,60z
	 M174.1,62.6c-1.4,1.3-2.8,4.3-2.8,5.9c0,0.3,0.1,0.4,0.3,0.4c0.2,0,0.9-0.3,2.2-1.5c1.7-1.6,2.7-3.5,3-4.9
	c-0.2-0.4-0.5-0.8-1.1-0.8C175.2,61.7,174.8,61.9,174.1,62.6 M186,61.8c0,0.4-0.2,0.6-0.4,0.7c-0.2,0-0.3,0-0.4-0.2
	c-0.4-0.4-0.7-0.7-1.4-0.7c-0.7,0-0.9,0.6-0.9,0.9c0,0.5,0.1,0.9,0.8,2.1c0.6,0.9,0.9,1.5,0.9,2.5c0,0.6-0.3,1.4-1.2,2.2
	c-0.6,0.5-1.4,0.8-2.3,0.8s-1.4-0.7-1.4-1.2c0-0.2,0.1-0.5,0.3-0.7c0.2-0.2,0.4-0.2,0.6,0c0.3,0.3,1,0.9,1.6,0.9
	c0.5,0,1.1-0.6,1.1-1.3c0-0.4-0.3-1.1-0.8-2c-0.6-0.9-0.8-1.7-0.8-2.1c0-0.9,0.4-1.5,1.4-2.4c0.7-0.6,1.4-0.7,1.7-0.7
	C185.4,60.5,186,61.2,186,61.8 M192.4,61.8c0,0.4-0.2,0.6-0.4,0.7c-0.2,0-0.3,0-0.4-0.2c-0.4-0.4-0.7-0.7-1.4-0.7
	c-0.7,0-0.9,0.6-0.9,0.9c0,0.5,0.1,0.9,0.8,2.1c0.6,0.9,0.9,1.5,0.9,2.5c0,0.6-0.3,1.4-1.2,2.2c-0.6,0.5-1.4,0.8-2.3,0.8
	c-0.9,0-1.4-0.7-1.4-1.2c0-0.2,0.1-0.5,0.3-0.7c0.2-0.2,0.4-0.2,0.6,0c0.3,0.3,1,0.9,1.6,0.9c0.5,0,1.1-0.6,1.1-1.3
	c0-0.4-0.3-1.1-0.8-2c-0.6-0.9-0.8-1.7-0.8-2.1c0-0.9,0.4-1.5,1.4-2.4c0.7-0.6,1.4-0.7,1.7-0.7C191.9,60.5,192.4,61.2,192.4,61.8
	 M195.8,67.8c-0.2,0.5-0.1,0.8,0.2,0.8c0.3,0,1.2-0.7,2.4-1.9c2.1-2,3.2-4.7,4-6c0.5-0.1,1,0.1,1.1,0.4c-0.2,0.6-1.7,4.3-2.6,7
	c-0.1,0.3-0.1,0.6,0.1,0.6c0.4,0,1.6-1.1,2.2-1.8c0.2,0,0.4,0,0.4,0.3c-0.6,1.1-2.8,2.9-4,2.9c-0.4,0-0.7-0.4-0.6-0.8l1.5-4.1l0,0
	c-1.6,2.1-4.4,5-5.7,5c-0.9,0-1-0.9-0.7-1.9l2.1-5.5c0.2-0.4,0.2-0.7,0-0.7c-0.4,0-1.6,1-2.1,1.6c-0.2,0-0.3-0.1-0.4-0.2
	c0,0,0-0.1,0-0.1c0.6-0.9,2.8-2.7,3.9-2.7c0.3,0,0.8,0.3,0.7,0.7L195.8,67.8L195.8,67.8z M210.6,61.8c0,0.4-0.2,0.6-0.4,0.7
	c-0.2,0-0.3,0-0.4-0.2c-0.4-0.4-0.7-0.7-1.4-0.7c-0.7,0-0.9,0.6-0.9,0.9c0,0.5,0.1,0.9,0.8,2.1c0.6,0.9,0.9,1.5,0.9,2.5
	c0,0.6-0.3,1.4-1.2,2.2c-0.6,0.5-1.4,0.8-2.3,0.8s-1.4-0.7-1.4-1.2c0-0.2,0.1-0.5,0.3-0.7c0.2-0.2,0.4-0.2,0.6,0
	c0.3,0.3,1,0.9,1.6,0.9c0.5,0,1.1-0.6,1.1-1.3c0-0.4-0.3-1.1-0.8-2c-0.6-0.9-0.8-1.7-0.8-2.1c0-0.9,0.4-1.5,1.4-2.4
	c0.7-0.6,1.4-0.7,1.7-0.7C210.1,60.5,210.6,61.2,210.6,61.8 M43.6,8.6c1.6,0,3.1,1.7,3.1,4.3v20.8c0,7.6-3.1,7-6.4,7
	c-3.3,0-3.7-3.3-3.7-7.1V13c0-2.7,1.4-4.3,3.1-4.3V7.5H28.4v1.1c1.6,0,3.1,1.7,3.1,4.3v22.5c0,4.3,2.3,7.6,7.8,7.6
	c5.5,0,8.9-0.3,8.9-9.4V13c0-2.7,1.4-4.3,3.1-4.3V7.5h-7.7V8.6 M281.6,8.6c1.6,0,3,1.7,3,4.3v20.8c0,7.6-3.1,7-6.4,7
	c-3.3,0-3.7-3.3-3.7-7.1V13c0-2.7,1.4-4.3,3-4.3V7.5h-11.1v1.1c1.6,0,3,1.7,3,4.3v22.5c0,4.3,2.3,7.6,7.8,7.6c5.5,0,8.9-0.3,8.9-9.4
	V13c0-2.7,1.3-4.3,3-4.3V7.5h-7.4L281.6,8.6 M66.3,40.5c-0.4,0.1-2.4,0.3-4,0.2C61,40.6,61,40.4,61,37.5V12.6c0-2.9,0.7-3.6,3-3.6
	c2.9,0,4.1,0.8,5.1,3.4c1.9,4.9,1.6,14.1,1.1,21.1C70.2,33.5,69.4,39.6,66.3,40.5 M65.5,7.5H52.9v1.1c1.7,0,3,1.7,3,4.3v24
	c0,2.7-1.4,4.3-3,4.3v1.1H67c2.3,0,4.9-1.3,6.5-6c1.6-4.8,1.8-8.8,1.5-14.8c-0.3-6-1.3-9.7-2.7-11.5C71,8.3,68.8,7.5,65.5,7.5
	 M86.4,40.7c-1.6-0.2-1.8-0.9-1.8-3.5V25.7c3.6,0.3,4,0.3,4.9,5.1h1v-12h-1c-0.8,4.5-1.3,4.8-4.9,5.1V12.2c0-2.6,0.2-3.1,1.4-3
	L88,9.3c5,0.2,5.2,3.2,5.5,4.9h1.2V7.5H76.5v1.1c1.6,0,3.1,1.7,3.1,4.3v24c0,2.7-1.4,4.3-3.1,4.3v1.1h18.6l1.4-6.3H95
	C93.4,41.6,88.9,40.8,86.4,40.7 M300.4,40.7c-1.6-0.2-1.8-0.9-1.8-3.5V25.7c3.6,0.3,4,0.3,4.9,5.1h1v-12h-1
	c-0.8,4.5-1.3,4.8-4.9,5.1V12.2c0-2.6,0.2-3.1,1.4-3l2.1,0.1c5,0.2,5.2,3.2,5.5,4.9h1.2V7.5h-18.3v1.1c1.6,0,3,1.7,3,4.3v24
	c0,2.7-1.4,4.3-3,4.3v1.1h18.5l1.4-6.3h-1.4C307.5,41.6,302.9,40.8,300.4,40.7 M19.6,27.4h-8.7l8.7-21.5V27.4 M25.2,0h-9.6v1.1
	c2.5,0,2.8,1.9,1.9,3.9C14.4,13.1,6.3,33.7,5.4,35.8c-1.2,2.6-2.8,5.5-5.4,5.5v1.1h9.1v-1.1c-2.1,0-2.7-3-1.7-5.5
	c1-2.5,2.8-6.8,2.8-6.8h9.4v7.5c0,4.6-1.6,4.8-3.9,4.8v1.1h13.5v-1.1c-1.9,0-3.9-0.1-3.9-4.8C25.3,34,25.2,0,25.2,0 M223.4,20.2
	c0,1.1-0.4,1.7-1.2,1.7h-4.5l0-9.2v-2.1l0-9.1h4.5c0.8,0,1.2,0.7,1.2,2C223.4,3.5,223.4,20.2,223.4,20.2z M224.5,0H208v1.1
	c2.4,0,3.9,1.6,3.9,4.7V36c0,4.8-1.8,5.2-3.9,5.2v1.1h13.5v-1.1c-2.4,0-3.9-0.5-3.9-5.2V23.6h7.2c2.3,0,4.1-1.7,4.1-5.5V5.3
	C229,2.2,227.5,0,224.5,0 M113.5,31.9l-6.7-24.3h-8.9v1.1c2.2,0,3.1,0.8,3.1,4.4v23.9c0,2.7-1.3,4.3-3.1,4.3v1.1h7.8v-1.1
	c-1.8,0-3.1-1.7-3.1-4.3v-25l8.5,30.4h0.8l8.8-30.3v24.9c0,2.7-1.3,4.3-3.1,4.3v1.1h11.4v-1.1c-1.8,0-3.2-1.7-3.2-4.3V13
	c0-2.7,1.3-4.3,3.2-4.3V7.5h-8.6l-7,23.8 M167.6,20.9c0,4.2-4.4,3.6-6,3.6V11.4c0-1.4,0.1-2.1,1.3-2.1c2.4,0,4.7-0.4,4.7,2.9
	C167.6,12.1,167.6,20.9,167.6,20.9z M174,39.4l-5.8-13.7c1.8-0.4,4.2-1.1,4.2-4.4c0-3.5-0.1-7.1-0.1-9.5c0-4.3-4-4.3-8-4.3h-10.7
	v1.1c1.6,0,3,1.7,3,4.3v24c0,2.7-1.8,4.3-3.1,4.3v1.1h11.2v-1.1c-1.6,0-3.1-1.7-3.1-4.3V26.1h1.7l5.7,14.3c0,0,0.3,0.8,0.9,1.4
	c0.5,0.5,1.7,0.5,1.7,0.5h4.2v-1.1C175.4,41.3,174.9,41.5,174,39.4 M232.3,8.6c2.1,0,3,1.7,3,4.3v24c0,2.7-1,4.3-3,4.3v1.1h11v-1.1
	c-2.1,0-3-1.7-3-4.3V13c0-2.7,0.9-4.3,3-4.3V7.5h-11L232.3,8.6 M187.3,20.9c-3.8-2-5.3-4.6-5.3-6.8c0-1.2,0.5-5.8,3.6-5.8
	c4.7,0.1,6.1,6.7,6.6,9.6h0.9V7h-1c0,1.2-0.5,1.5-1,1.5c-1.7-0.1-2.3-2.1-6.8-1.9c-2.9,0.1-6.6,2.7-6.6,9.6c0,3.2,1.2,7.6,5.1,10.3
	c5.7,3.8,7.5,5.4,7.5,8.3c0,1.2-0.4,6.4-4.9,6.4c-3.2,0-5.3-5.3-5.7-7.3l-0.7-3.6h-1v12.2h1.1c0.1-1,0.4-1.5,0.8-1.5
	c1.7,0,3.4,1.8,6.3,1.7c7.5-0.1,8.9-6.5,8.9-10C195,27.8,192.6,23.6,187.3,20.9 M257.8,24.7v0.9c0,0,1.5,0.1,1.5,2.6v8.1
	c0,4.3-1.5,4.7-4.2,4.7c-2.7,0-3.7-1-3.7-4.3v-24c0-2.3,1.2-4.2,4-4.2c3.1,0,6.4,3.1,6.4,9.1h1.7V7h-1.3c0,4.1-2.4-0.1-6.7-0.1
	c-3.1,0-5.7,0.8-7.1,2.4c-1.5,1.7-2.2,3.7-2.2,6.1v18.8c0,2.4,0.7,4.4,2.2,6c1.5,1.7,4.7,2.6,6.8,2.6c1.2,0,3-0.5,3.9-0.9
	c0.9-0.4,1.7-1.1,2.4-1.9c1.5-1.7,2.3-3.7,2.3-6v-5.8c0-2.3,1.5-2.5,1.5-2.5v-0.9C265.4,24.7,257.8,24.7,257.8,24.7z M150.3,38.9
	l-7.1-31.4h-6.2v1.1c2.2,0,1.9,1.8,1.5,3.9l-5.1,25.4c-0.7,2.9-1.6,3.4-2.5,3.4v1.1h5.9v-1.1c-2.2,0-2.2-1.8-1.6-4.5l1-5.1h7.4
	l1.4,6.3c0.7,2.8-0.4,3.3-1.7,3.3v1.1h9v-1.1h0C151.8,41.2,150.9,41,150.3,38.9 M136.6,30.1l3.1-15.6l3.5,15.6H136.6z M311.2,7.5
	v6.7h1.2c0.2-1.3,0.5-3.3,1.7-4.1c1.2-0.8,2.4-0.7,4.5-0.7v27.5c0,2.7-1.3,4.3-3,4.3v1.1h11v-1.1c-1.6,0-3-1.7-3-4.3V9.4
	c2,0,3.2,0,4.5,0.7c1.2,0.8,1.5,2.7,1.7,4.1h1.2V7.5H311.2z"/>
</svg>
