<svg xmlns="http://www.w3.org/2000/svg" width="26" height="20" fill="none" viewBox="0 0 26 20">
    <path fill="#000" d="M12.847.005H7.981v.52c1.284 0 1.402.88.993 1.843-1.637 3.84-5.762 13.538-6.243 14.529-.606 1.24-1.45 2.6-2.731 2.6V20h4.61v-.504c-1.049 0-1.364-1.426-.844-2.596l1.432-3.235h4.787v3.563c0 2.164-.83 2.268-2.004 2.268V20h6.874v-.504c-.98 0-2-.064-2-2.268.003-1.143-.008-17.223-.008-17.223zM9.99 12.938h-4.43L9.988 2.79v10.148z"/>
    <path fill="#000" d="M22.725 0h-8.397v.527c1.201 0 2.011.75 2.011 2.231v14.276c0 2.278-.917 2.46-2.004 2.46V20h6.874v-.504c-1.243 0-1.973-.254-1.973-2.45v-5.893h3.669c1.18 0 2.097-.794 2.097-2.603V2.491C24.999 1.048 24.23 0 22.725 0zm-.547 9.57c0 .537-.208.825-.634.825h-2.312l.004-4.368V5.02L19.232.737h2.312c.426 0 .634.314.634.943v7.89z"/>
    <path fill="#000" d="M11.907.183c1.506 0-.203-.183-.203-.183h3.16v.527c-1.202 0-2.012.75-2.012 2.231v14.276c0 2.278.918 2.46 2.004 2.46V20l-3.152-.504c1.242 0-.817-.264-.817-2.461l-.282-5.966-.369-.64c0-1.098.738-.092.369-2.013V2.378C10.608.935 10.402.183 11.907.183z"/>
</svg>
